<svg width="28" height="28" viewBox="0 0 28 28" fill="none" xmlns="http://www.w3.org/2000/svg">
<path d="M13.5971 0.615321C13.9634 0.221311 14.46 -1.72688e-07 14.9777 -1.66085e-07C15.4954 -1.59482e-07 15.9919 0.221311 16.3582 0.615321L27.4287 12.538C27.7945 12.9325 28 13.4672 28 14.0248C28 14.5824 27.7945 15.1171 27.4287 15.5116L16.3582 27.4343C15.9879 27.8064 15.498 28.0091 14.9916 27.9997C14.4853 27.9903 14.0021 27.7694 13.644 27.3838C13.2859 26.9981 13.0809 26.4778 13.0721 25.9324C13.0634 25.3871 13.2516 24.8594 13.5971 24.4606L21.3334 16.1288L1.95361 16.1288C1.43548 16.1288 0.938573 15.9071 0.5722 15.5126C0.205829 15.118 1.63001e-06 14.5828 1.71361e-06 14.0248C1.7972e-06 13.4668 0.20583 12.9316 0.572201 12.5371C0.938574 12.1425 1.43548 11.9208 1.95361 11.9208L21.3334 11.9208L13.5971 3.58897C13.2313 3.19447 13.0258 2.65971 13.0258 2.10215C13.0258 1.54459 13.2313 1.00982 13.5971 0.615321Z" fill="white"/>
</svg>
