<svg width="969" height="380" viewBox="0 0 969 380" fill="none" xmlns="http://www.w3.org/2000/svg">
<g clip-path="url(#clip0_63_3)">
<g filter="url(#filter0_f_63_3)">
<path d="M12.7273 365.864V368.727C11.4015 368.727 10.4773 368.989 9.95455 369.511C9.43939 370.027 9.18182 370.841 9.18182 371.955V373.727C9.18182 375.364 8.92424 376.629 8.40909 377.523C7.90152 378.424 7.21212 379.068 6.34091 379.455C5.47727 379.841 4.49621 380.072 3.39773 380.148C2.30682 380.231 1.17424 380.273 0 380.273V375.727C0.909091 375.727 1.58333 375.625 2.02273 375.42C2.46212 375.216 2.75 374.905 2.88636 374.489C3.02273 374.064 3.09091 373.538 3.09091 372.909V370.409C3.09091 369.841 3.21591 369.288 3.46591 368.75C3.72349 368.205 4.19318 367.716 4.875 367.284C5.55682 366.852 6.5303 366.508 7.79545 366.25C9.06061 365.992 10.7045 365.864 12.7273 365.864ZM0 351.727C1.17424 351.727 2.30682 351.769 3.39773 351.852C4.49621 351.928 5.47727 352.159 6.34091 352.545C7.21212 352.932 7.90152 353.576 8.40909 354.477C8.92424 355.371 9.18182 356.636 9.18182 358.273V360.045C9.18182 361.159 9.43939 361.977 9.95455 362.5C10.4773 363.015 11.4015 363.273 12.7273 363.273V366.136C10.7045 366.136 9.06061 366.008 7.79545 365.75C6.5303 365.492 5.55682 365.148 4.875 364.716C4.19318 364.284 3.72349 363.799 3.46591 363.261C3.21591 362.716 3.09091 362.159 3.09091 361.591V359.091C3.09091 358.455 3.02273 357.928 2.88636 357.511C2.75 357.095 2.46212 356.784 2.02273 356.58C1.58333 356.375 0.909091 356.273 0 356.273V351.727ZM12.7273 363.273V368.727H7.72727V363.273H12.7273Z" fill="#131313"/>
</g>
<g filter="url(#filter1_f_63_3)">
<path d="M163.088 332.818L162.997 334.091C162.921 335.182 162.74 336.227 162.452 337.227C162.171 338.227 161.872 339.114 161.554 339.886C161.243 340.659 160.997 341.258 160.815 341.682H156.952C157.073 341.258 157.243 340.644 157.463 339.841C157.69 339.045 157.895 338.144 158.077 337.136C158.266 336.136 158.361 335.121 158.361 334.091V332.818H163.088ZM160.815 324.636C159.937 324.636 159.183 324.33 158.554 323.716C157.933 323.095 157.626 322.341 157.633 321.455C157.626 320.591 157.933 319.852 158.554 319.239C159.183 318.625 159.937 318.318 160.815 318.318C161.649 318.318 162.383 318.625 163.02 319.239C163.664 319.852 163.99 320.591 163.997 321.455C163.99 322.045 163.834 322.583 163.531 323.068C163.236 323.545 162.849 323.928 162.372 324.216C161.895 324.496 161.376 324.636 160.815 324.636Z" fill="#1E1E1E"/>
</g>
<g filter="url(#filter2_f_63_3)">
<path d="M143.713 336.636C141.6 336.629 139.774 336.14 138.236 335.17C136.698 334.201 135.512 332.803 134.679 330.977C133.846 329.151 133.433 326.962 133.441 324.409C133.448 321.848 133.865 319.674 134.691 317.886C135.524 316.098 136.706 314.739 138.236 313.807C139.774 312.875 141.6 312.409 143.713 312.409C145.827 312.409 147.653 312.879 149.191 313.818C150.728 314.75 151.914 316.11 152.747 317.898C153.581 319.686 153.994 321.856 153.986 324.409C153.986 326.977 153.569 329.174 152.736 331C151.903 332.826 150.717 334.223 149.179 335.193C147.649 336.155 145.827 336.636 143.713 336.636ZM143.713 331.5C144.804 331.5 145.698 330.932 146.395 329.795C147.1 328.651 147.448 326.856 147.441 324.409C147.441 322.811 147.281 321.504 146.963 320.489C146.645 319.473 146.206 318.723 145.645 318.239C145.084 317.746 144.441 317.5 143.713 317.5C142.622 317.5 141.732 318.053 141.043 319.159C140.353 320.265 140.001 322.015 139.986 324.409C139.978 326.038 140.134 327.379 140.452 328.432C140.77 329.477 141.209 330.25 141.77 330.75C142.338 331.25 142.986 331.5 143.713 331.5Z" fill="#1E1E1E"/>
</g>
<g filter="url(#filter3_f_63_3)">
<path d="M112.832 326.182V336H106.56V318.545H112.514V321.864H112.696C113.075 320.758 113.741 319.89 114.696 319.261C115.658 318.633 116.779 318.318 118.06 318.318C119.294 318.318 120.366 318.602 121.275 319.17C122.192 319.731 122.9 320.504 123.4 321.489C123.908 322.473 124.158 323.598 124.15 324.864V336H117.878V326.182C117.885 325.318 117.666 324.64 117.219 324.148C116.779 323.655 116.166 323.409 115.378 323.409C114.863 323.409 114.412 323.523 114.025 323.75C113.647 323.97 113.355 324.288 113.15 324.705C112.946 325.114 112.84 325.606 112.832 326.182Z" fill="#1E1E1E"/>
</g>
<g filter="url(#filter4_f_63_3)">
<path d="M92.6846 336V318.545H98.7755V321.864H98.9573C99.2755 320.636 99.7793 319.739 100.469 319.17C101.166 318.602 101.98 318.318 102.912 318.318C103.185 318.318 103.454 318.341 103.719 318.386C103.991 318.424 104.253 318.481 104.503 318.557V323.909C104.192 323.803 103.81 323.723 103.355 323.67C102.9 323.617 102.51 323.591 102.185 323.591C101.571 323.591 101.018 323.731 100.525 324.011C100.041 324.284 99.658 324.67 99.3777 325.17C99.0974 325.663 98.9573 326.242 98.9573 326.909V336H92.6846Z" fill="#1E1E1E"/>
</g>
<g filter="url(#filter5_f_63_3)">
<path d="M83.2215 328.364V318.545H89.4942V336H83.5397V332.682H83.3579C82.9791 333.795 82.3162 334.667 81.3692 335.295C80.4223 335.917 79.2973 336.227 77.9942 336.227C76.7745 336.227 75.7063 335.947 74.7897 335.386C73.8806 334.826 73.1723 334.053 72.6647 333.068C72.1647 332.083 71.9109 330.955 71.9033 329.682V318.545H78.176V328.364C78.1836 329.227 78.4033 329.905 78.8351 330.398C79.2745 330.89 79.8882 331.136 80.676 331.136C81.1988 331.136 81.6495 331.026 82.0283 330.807C82.4147 330.58 82.7101 330.261 82.9147 329.852C83.1268 329.436 83.2291 328.939 83.2215 328.364Z" fill="#1E1E1E"/>
</g>
<g filter="url(#filter6_f_63_3)">
<path d="M69.3438 318.545V323.091H57.8438V318.545H69.3438ZM60.071 314.364H66.3438V330.386C66.3438 330.629 66.3854 330.833 66.4688 331C66.5521 331.159 66.6809 331.28 66.8551 331.364C67.0294 331.439 67.2528 331.477 67.5256 331.477C67.715 331.477 67.9347 331.455 68.1847 331.409C68.4422 331.364 68.6316 331.326 68.7528 331.295L69.6619 335.705C69.3816 335.788 68.9801 335.89 68.4574 336.011C67.9422 336.133 67.3286 336.212 66.6165 336.25C65.1771 336.326 63.9688 336.178 62.9915 335.807C62.0142 335.428 61.2794 334.833 60.7869 334.023C60.2945 333.212 60.0559 332.197 60.071 330.977V314.364Z" fill="#1E1E1E"/>
</g>
<g filter="url(#filter7_f_63_3)">
<path d="M47.8296 336.318C45.966 336.318 44.3599 335.962 43.0114 335.25C41.6705 334.53 40.6364 333.5 39.9091 332.159C39.1894 330.811 38.8296 329.197 38.8296 327.318C38.8296 325.515 39.1932 323.939 39.9205 322.591C40.6478 321.242 41.6743 320.193 43 319.443C44.3258 318.693 45.8902 318.318 47.6932 318.318C49.0114 318.318 50.2046 318.523 51.2728 318.932C52.341 319.341 53.2538 319.936 54.0114 320.716C54.769 321.489 55.3523 322.428 55.7614 323.534C56.1705 324.64 56.375 325.886 56.375 327.273V328.727H40.7841V325.273H50.6023C50.5947 324.773 50.466 324.333 50.216 323.955C49.9735 323.568 49.644 323.269 49.2273 323.057C48.8182 322.837 48.3523 322.727 47.8296 322.727C47.322 322.727 46.8561 322.837 46.4319 323.057C46.0076 323.269 45.6667 323.564 45.4091 323.943C45.1591 324.322 45.0266 324.765 45.0114 325.273V329C45.0114 329.561 45.1288 330.061 45.3637 330.5C45.5985 330.939 45.9357 331.284 46.375 331.534C46.8144 331.784 47.3447 331.909 47.966 331.909C48.3978 331.909 48.7917 331.848 49.1478 331.727C49.5114 331.606 49.822 331.432 50.0796 331.205C50.3372 330.97 50.5266 330.689 50.6478 330.364H56.375C56.1781 331.576 55.7122 332.629 54.9773 333.523C54.2425 334.409 53.269 335.098 52.0569 335.591C50.8523 336.076 49.4432 336.318 47.8296 336.318Z" fill="#1E1E1E"/>
</g>
<g filter="url(#filter8_f_63_3)">
<path d="M26.5908 336V318.545H32.6817V321.864H32.8635C33.1817 320.636 33.6855 319.739 34.3749 319.17C35.0719 318.602 35.8863 318.318 36.8181 318.318C37.0908 318.318 37.3598 318.341 37.6249 318.386C37.8976 318.424 38.159 318.481 38.409 318.557V323.909C38.0984 323.803 37.7158 323.723 37.2613 323.67C36.8067 323.617 36.4166 323.591 36.0908 323.591C35.4772 323.591 34.9242 323.731 34.4317 324.011C33.9469 324.284 33.5643 324.67 33.284 325.17C33.0037 325.663 32.8635 326.242 32.8635 326.909V336H26.5908Z" fill="#1E1E1E"/>
</g>
<g filter="url(#filter9_f_63_3)">
<path d="M369.182 254.818L369.091 256.091C369.015 257.182 368.833 258.227 368.545 259.227C368.265 260.227 367.966 261.114 367.648 261.886C367.337 262.659 367.091 263.258 366.909 263.682H363.045C363.167 263.258 363.337 262.644 363.557 261.841C363.784 261.045 363.989 260.144 364.17 259.136C364.36 258.136 364.455 257.121 364.455 256.091V254.818H369.182ZM366.909 246.636C366.03 246.636 365.276 246.33 364.648 245.716C364.026 245.095 363.72 244.341 363.727 243.455C363.72 242.591 364.026 241.852 364.648 241.239C365.276 240.625 366.03 240.318 366.909 240.318C367.742 240.318 368.477 240.625 369.114 241.239C369.758 241.852 370.083 242.591 370.091 243.455C370.083 244.045 369.928 244.583 369.625 245.068C369.33 245.545 368.943 245.928 368.466 246.216C367.989 246.496 367.47 246.636 366.909 246.636Z" fill="#313131"/>
</g>
<g filter="url(#filter10_f_63_3)">
<path d="M358.77 249C358.77 251.795 358.387 254.367 357.622 256.716C356.865 259.064 355.656 261.25 353.997 263.273H347.861C348.49 262.523 349.069 261.61 349.599 260.534C350.13 259.466 350.588 258.295 350.974 257.023C351.368 255.75 351.675 254.432 351.895 253.068C352.115 251.697 352.224 250.341 352.224 249C352.224 247.212 352.035 245.413 351.656 243.602C351.277 241.784 350.759 240.102 350.099 238.557C349.44 237.004 348.694 235.727 347.861 234.727H353.997C355.656 236.75 356.865 238.936 357.622 241.284C358.387 243.633 358.77 246.205 358.77 249Z" fill="#313131"/>
</g>
<g filter="url(#filter11_f_63_3)">
<path d="M339.866 234.727V237.455C339.866 238.197 339.715 238.939 339.412 239.682C339.116 240.417 338.738 241.102 338.275 241.739C337.821 242.367 337.351 242.894 336.866 243.318L334.275 242C334.594 241.455 334.878 240.822 335.128 240.102C335.378 239.383 335.503 238.5 335.503 237.455V234.727H339.866ZM345.503 234.727V237.455C345.503 238.197 345.351 238.939 345.048 239.682C344.753 240.417 344.374 241.102 343.912 241.739C343.457 242.367 342.988 242.894 342.503 243.318L339.912 242C340.23 241.455 340.514 240.822 340.764 240.102C341.014 239.383 341.139 238.5 341.139 237.455V234.727H345.503Z" fill="#313131"/>
</g>
<g filter="url(#filter12_f_63_3)">
<path d="M320.27 248.182V258H313.997V240.545H319.952V243.864H320.133C320.512 242.758 321.179 241.89 322.133 241.261C323.096 240.633 324.217 240.318 325.497 240.318C326.732 240.318 327.804 240.602 328.713 241.17C329.63 241.731 330.338 242.504 330.838 243.489C331.346 244.473 331.596 245.598 331.588 246.864V258H325.315V248.182C325.323 247.318 325.103 246.64 324.656 246.148C324.217 245.655 323.603 245.409 322.815 245.409C322.3 245.409 321.849 245.523 321.463 245.75C321.084 245.97 320.793 246.288 320.588 246.705C320.383 247.114 320.277 247.606 320.27 248.182Z" fill="#313131"/>
</g>
<g filter="url(#filter13_f_63_3)">
<path d="M306.9 261.5L299.4 233.636H304.719L312.219 261.5H306.9Z" fill="#313131"/>
</g>
<g filter="url(#filter14_f_63_3)">
<path d="M131.597 242V239.273C131.597 238.53 131.748 237.784 132.051 237.034C132.354 236.284 132.737 235.591 133.199 234.955C133.661 234.318 134.127 233.803 134.597 233.409L137.188 234.727C136.794 235.386 136.487 236.076 136.267 236.795C136.055 237.515 135.953 238.341 135.96 239.273V242H131.597ZM137.279 242V239.273C137.279 238.53 137.43 237.784 137.733 237.034C138.036 236.284 138.419 235.591 138.881 234.955C139.343 234.318 139.809 233.803 140.279 233.409L142.869 234.727C142.475 235.386 142.169 236.076 141.949 236.795C141.737 237.515 141.635 238.341 141.642 239.273V242H137.279Z" fill="#313131"/>
</g>
<g filter="url(#filter15_f_63_3)">
<path d="M118.321 249C118.321 246.205 118.7 243.633 119.457 241.284C120.222 238.936 121.434 236.75 123.094 234.727H129.23C128.609 235.477 128.029 236.39 127.491 237.466C126.961 238.534 126.499 239.705 126.105 240.977C125.719 242.25 125.415 243.572 125.196 244.943C124.976 246.307 124.866 247.659 124.866 249C124.866 250.788 125.056 252.591 125.434 254.409C125.813 256.22 126.332 257.898 126.991 259.443C127.65 260.996 128.397 262.273 129.23 263.273H123.094C121.434 261.25 120.222 259.064 119.457 256.716C118.7 254.367 118.321 251.795 118.321 249Z" fill="#313131"/>
</g>
<g filter="url(#filter16_f_63_3)">
<path d="M114.764 240.545V245.091H103.083V240.545H114.764ZM105.31 258V240.045C105.31 238.606 105.567 237.413 106.083 236.466C106.598 235.519 107.325 234.811 108.264 234.341C109.204 233.871 110.31 233.636 111.583 233.636C112.378 233.636 113.151 233.697 113.901 233.818C114.658 233.939 115.219 234.045 115.583 234.136L114.673 238.636C114.446 238.568 114.181 238.515 113.878 238.477C113.575 238.432 113.31 238.409 113.083 238.409C112.492 238.409 112.094 238.534 111.889 238.784C111.685 239.034 111.583 239.364 111.583 239.773V258H105.31Z" fill="#313131"/>
</g>
<g filter="url(#filter17_f_63_3)">
<path d="M101.75 240.545V245.091H90.25V240.545H101.75ZM92.4773 236.364H98.75V252.386C98.75 252.629 98.7917 252.833 98.875 253C98.9583 253.159 99.0871 253.28 99.2614 253.364C99.4356 253.439 99.6591 253.477 99.9318 253.477C100.121 253.477 100.341 253.455 100.591 253.409C100.848 253.364 101.038 253.326 101.159 253.295L102.068 257.705C101.788 257.788 101.386 257.89 100.864 258.011C100.348 258.133 99.7348 258.212 99.0227 258.25C97.5833 258.326 96.375 258.178 95.3977 257.807C94.4205 257.428 93.6856 256.833 93.1932 256.023C92.7008 255.212 92.4621 254.197 92.4773 252.977V236.364Z" fill="#313131"/>
</g>
<g filter="url(#filter18_f_63_3)">
<path d="M76.926 248.182V258H70.6533V240.545H76.6079V243.864H76.7897C77.1685 242.758 77.8351 241.89 78.7897 241.261C79.7518 240.633 80.873 240.318 82.1533 240.318C83.3882 240.318 84.4601 240.602 85.3692 241.17C86.2859 241.731 86.9942 242.504 87.4942 243.489C88.0018 244.473 88.2518 245.598 88.2442 246.864V258H81.9715V248.182C81.9791 247.318 81.7594 246.64 81.3124 246.148C80.873 245.655 80.2594 245.409 79.4715 245.409C78.9563 245.409 78.5056 245.523 78.1192 245.75C77.7404 245.97 77.4488 246.288 77.2442 246.705C77.0397 247.114 76.9336 247.606 76.926 248.182Z" fill="#313131"/>
</g>
<g filter="url(#filter19_f_63_3)">
<path d="M61.1846 258V240.545H67.4573V258H61.1846ZM64.3209 238.727C63.4724 238.727 62.7452 238.447 62.1391 237.886C61.5331 237.326 61.23 236.652 61.23 235.864C61.23 235.076 61.5331 234.402 62.1391 233.841C62.7452 233.28 63.4724 233 64.3209 233C65.177 233 65.9043 233.28 66.5028 233.841C67.1088 234.402 67.4118 235.076 67.4118 235.864C67.4118 236.652 67.1088 237.326 66.5028 237.886C65.9043 238.447 65.177 238.727 64.3209 238.727Z" fill="#313131"/>
</g>
<g filter="url(#filter20_f_63_3)">
<path d="M47.3096 258V240.545H53.4005V243.864H53.5823C53.9005 242.636 54.4043 241.739 55.0937 241.17C55.7906 240.602 56.605 240.318 57.5368 240.318C57.8096 240.318 58.0785 240.341 58.3437 240.386C58.6164 240.424 58.8778 240.481 59.1278 240.557V245.909C58.8171 245.803 58.4346 245.723 57.98 245.67C57.5255 245.617 57.1353 245.591 56.8096 245.591C56.1959 245.591 55.6429 245.731 55.1505 246.011C54.6656 246.284 54.2831 246.67 54.0028 247.17C53.7225 247.663 53.5823 248.242 53.5823 248.909V258H47.3096Z" fill="#313131"/>
</g>
<g filter="url(#filter21_f_63_3)">
<path d="M26.5908 264.545V240.545H32.8181V243.591H32.9545C33.1817 243 33.5151 242.458 33.9545 241.966C34.3938 241.466 34.9393 241.068 35.5908 240.773C36.2423 240.47 36.9999 240.318 37.8635 240.318C39.0151 240.318 40.1098 240.625 41.1476 241.239C42.1931 241.852 43.0416 242.818 43.6931 244.136C44.3522 245.455 44.6817 247.167 44.6817 249.273C44.6817 251.288 44.3673 252.958 43.7385 254.284C43.1173 255.61 42.284 256.598 41.2385 257.25C40.2007 257.902 39.0605 258.227 37.8181 258.227C36.9999 258.227 36.2688 258.095 35.6249 257.83C34.9885 257.557 34.4431 257.189 33.9885 256.727C33.5416 256.258 33.1969 255.727 32.9545 255.136H32.8635V264.545H26.5908ZM32.7272 249.273C32.7272 250.121 32.837 250.856 33.0567 251.477C33.284 252.091 33.6022 252.568 34.0113 252.909C34.4279 253.242 34.9242 253.409 35.4999 253.409C36.0757 253.409 36.5643 253.246 36.9658 252.92C37.3749 252.587 37.6855 252.114 37.8976 251.5C38.1173 250.879 38.2272 250.136 38.2272 249.273C38.2272 248.409 38.1173 247.67 37.8976 247.057C37.6855 246.436 37.3749 245.962 36.9658 245.636C36.5643 245.303 36.0757 245.136 35.4999 245.136C34.9242 245.136 34.4279 245.303 34.0113 245.636C33.6022 245.962 33.284 246.436 33.0567 247.057C32.837 247.67 32.7272 248.409 32.7272 249.273Z" fill="#313131"/>
</g>
<g filter="url(#filter22_f_63_3)">
<path d="M968.526 215.818L968.435 217.091C968.359 218.182 968.177 219.227 967.889 220.227C967.609 221.227 967.31 222.114 966.991 222.886C966.681 223.659 966.435 224.258 966.253 224.682H962.389C962.51 224.258 962.681 223.644 962.901 222.841C963.128 222.045 963.332 221.144 963.514 220.136C963.704 219.136 963.798 218.121 963.798 217.091V215.818H968.526ZM966.253 207.636C965.374 207.636 964.62 207.33 963.991 206.716C963.37 206.095 963.063 205.341 963.071 204.455C963.063 203.591 963.37 202.852 963.991 202.239C964.62 201.625 965.374 201.318 966.253 201.318C967.086 201.318 967.821 201.625 968.457 202.239C969.101 202.852 969.427 203.591 969.435 204.455C969.427 205.045 969.272 205.583 968.969 206.068C968.673 206.545 968.287 206.928 967.81 207.216C967.332 207.496 966.813 207.636 966.253 207.636Z" fill="#4A4A4A"/>
</g>
<g filter="url(#filter23_f_63_3)">
<path d="M958.114 210C958.114 212.795 957.731 215.367 956.966 217.716C956.208 220.064 955 222.25 953.341 224.273H947.205C947.833 223.523 948.413 222.61 948.943 221.534C949.474 220.466 949.932 219.295 950.318 218.023C950.712 216.75 951.019 215.432 951.239 214.068C951.458 212.697 951.568 211.341 951.568 210C951.568 208.212 951.379 206.413 951 204.602C950.621 202.784 950.102 201.102 949.443 199.557C948.784 198.004 948.038 196.727 947.205 195.727H953.341C955 197.75 956.208 199.936 956.966 202.284C957.731 204.633 958.114 207.205 958.114 210Z" fill="#4A4A4A"/>
</g>
<g filter="url(#filter24_f_63_3)">
<path d="M939.21 195.727V198.455C939.21 199.197 939.059 199.939 938.755 200.682C938.46 201.417 938.081 202.102 937.619 202.739C937.165 203.367 936.695 203.894 936.21 204.318L933.619 203C933.937 202.455 934.221 201.822 934.471 201.102C934.721 200.383 934.846 199.5 934.846 198.455V195.727H939.21ZM944.846 195.727V198.455C944.846 199.197 944.695 199.939 944.392 200.682C944.096 201.417 943.718 202.102 943.255 202.739C942.801 203.367 942.331 203.894 941.846 204.318L939.255 203C939.574 202.455 939.858 201.822 940.108 201.102C940.358 200.383 940.483 199.5 940.483 198.455V195.727H944.846Z" fill="#4A4A4A"/>
</g>
<g filter="url(#filter25_f_63_3)">
<path d="M919.614 209.182V219H913.341V201.545H919.295V204.864H919.477C919.856 203.758 920.523 202.89 921.477 202.261C922.439 201.633 923.561 201.318 924.841 201.318C926.076 201.318 927.148 201.602 928.057 202.17C928.973 202.731 929.682 203.504 930.182 204.489C930.689 205.473 930.939 206.598 930.932 207.864V219H924.659V209.182C924.667 208.318 924.447 207.64 924 207.148C923.561 206.655 922.947 206.409 922.159 206.409C921.644 206.409 921.193 206.523 920.807 206.75C920.428 206.97 920.136 207.288 919.932 207.705C919.727 208.114 919.621 208.606 919.614 209.182Z" fill="#4A4A4A"/>
</g>
<g filter="url(#filter26_f_63_3)">
<path d="M906.244 222.5L898.744 194.636H904.062L911.562 222.5H906.244Z" fill="#4A4A4A"/>
</g>
<g filter="url(#filter27_f_63_3)">
<path d="M131.597 203V200.273C131.597 199.53 131.748 198.784 132.051 198.034C132.354 197.284 132.737 196.591 133.199 195.955C133.661 195.318 134.127 194.803 134.597 194.409L137.188 195.727C136.794 196.386 136.487 197.076 136.267 197.795C136.055 198.515 135.953 199.341 135.96 200.273V203H131.597ZM137.279 203V200.273C137.279 199.53 137.43 198.784 137.733 198.034C138.036 197.284 138.419 196.591 138.881 195.955C139.343 195.318 139.809 194.803 140.279 194.409L142.869 195.727C142.475 196.386 142.169 197.076 141.949 197.795C141.737 198.515 141.635 199.341 141.642 200.273V203H137.279Z" fill="#4A4A4A"/>
</g>
<g filter="url(#filter28_f_63_3)">
<path d="M118.321 210C118.321 207.205 118.7 204.633 119.457 202.284C120.222 199.936 121.434 197.75 123.094 195.727H129.23C128.609 196.477 128.029 197.39 127.491 198.466C126.961 199.534 126.499 200.705 126.105 201.977C125.719 203.25 125.415 204.572 125.196 205.943C124.976 207.307 124.866 208.659 124.866 210C124.866 211.788 125.056 213.591 125.434 215.409C125.813 217.22 126.332 218.898 126.991 220.443C127.65 221.996 128.397 223.273 129.23 224.273H123.094C121.434 222.25 120.222 220.064 119.457 217.716C118.7 215.367 118.321 212.795 118.321 210Z" fill="#4A4A4A"/>
</g>
<g filter="url(#filter29_f_63_3)">
<path d="M114.764 201.545V206.091H103.083V201.545H114.764ZM105.31 219V201.045C105.31 199.606 105.567 198.413 106.083 197.466C106.598 196.519 107.325 195.811 108.264 195.341C109.204 194.871 110.31 194.636 111.583 194.636C112.378 194.636 113.151 194.697 113.901 194.818C114.658 194.939 115.219 195.045 115.583 195.136L114.673 199.636C114.446 199.568 114.181 199.515 113.878 199.477C113.575 199.432 113.31 199.409 113.083 199.409C112.492 199.409 112.094 199.534 111.889 199.784C111.685 200.034 111.583 200.364 111.583 200.773V219H105.31Z" fill="#4A4A4A"/>
</g>
<g filter="url(#filter30_f_63_3)">
<path d="M101.75 201.545V206.091H90.25V201.545H101.75ZM92.4773 197.364H98.75V213.386C98.75 213.629 98.7917 213.833 98.875 214C98.9583 214.159 99.0871 214.28 99.2614 214.364C99.4356 214.439 99.6591 214.477 99.9318 214.477C100.121 214.477 100.341 214.455 100.591 214.409C100.848 214.364 101.038 214.326 101.159 214.295L102.068 218.705C101.788 218.788 101.386 218.89 100.864 219.011C100.348 219.133 99.7348 219.212 99.0227 219.25C97.5833 219.326 96.375 219.178 95.3977 218.807C94.4205 218.428 93.6856 217.833 93.1932 217.023C92.7008 216.212 92.4621 215.197 92.4773 213.977V197.364Z" fill="#4A4A4A"/>
</g>
<g filter="url(#filter31_f_63_3)">
<path d="M76.926 209.182V219H70.6533V201.545H76.6079V204.864H76.7897C77.1685 203.758 77.8351 202.89 78.7897 202.261C79.7518 201.633 80.873 201.318 82.1533 201.318C83.3882 201.318 84.4601 201.602 85.3692 202.17C86.2859 202.731 86.9942 203.504 87.4942 204.489C88.0018 205.473 88.2518 206.598 88.2442 207.864V219H81.9715V209.182C81.9791 208.318 81.7594 207.64 81.3124 207.148C80.873 206.655 80.2594 206.409 79.4715 206.409C78.9563 206.409 78.5056 206.523 78.1192 206.75C77.7404 206.97 77.4488 207.288 77.2442 207.705C77.0397 208.114 76.9336 208.606 76.926 209.182Z" fill="#4A4A4A"/>
</g>
<g filter="url(#filter32_f_63_3)">
<path d="M61.1846 219V201.545H67.4573V219H61.1846ZM64.3209 199.727C63.4724 199.727 62.7452 199.447 62.1391 198.886C61.5331 198.326 61.23 197.652 61.23 196.864C61.23 196.076 61.5331 195.402 62.1391 194.841C62.7452 194.28 63.4724 194 64.3209 194C65.177 194 65.9043 194.28 66.5028 194.841C67.1088 195.402 67.4118 196.076 67.4118 196.864C67.4118 197.652 67.1088 198.326 66.5028 198.886C65.9043 199.447 65.177 199.727 64.3209 199.727Z" fill="#4A4A4A"/>
</g>
<g filter="url(#filter33_f_63_3)">
<path d="M47.3096 219V201.545H53.4005V204.864H53.5823C53.9005 203.636 54.4043 202.739 55.0937 202.17C55.7906 201.602 56.605 201.318 57.5368 201.318C57.8096 201.318 58.0785 201.341 58.3437 201.386C58.6164 201.424 58.8778 201.481 59.1278 201.557V206.909C58.8171 206.803 58.4346 206.723 57.98 206.67C57.5255 206.617 57.1353 206.591 56.8096 206.591C56.1959 206.591 55.6429 206.731 55.1505 207.011C54.6656 207.284 54.2831 207.67 54.0028 208.17C53.7225 208.663 53.5823 209.242 53.5823 209.909V219H47.3096Z" fill="#4A4A4A"/>
</g>
<g filter="url(#filter34_f_63_3)">
<path d="M26.5908 225.545V201.545H32.8181V204.591H32.9545C33.1817 204 33.5151 203.458 33.9545 202.966C34.3938 202.466 34.9393 202.068 35.5908 201.773C36.2423 201.47 36.9999 201.318 37.8635 201.318C39.0151 201.318 40.1098 201.625 41.1476 202.239C42.1931 202.852 43.0416 203.818 43.6931 205.136C44.3522 206.455 44.6817 208.167 44.6817 210.273C44.6817 212.288 44.3673 213.958 43.7385 215.284C43.1173 216.61 42.284 217.598 41.2385 218.25C40.2007 218.902 39.0605 219.227 37.8181 219.227C36.9999 219.227 36.2688 219.095 35.6249 218.83C34.9885 218.557 34.4431 218.189 33.9885 217.727C33.5416 217.258 33.1969 216.727 32.9545 216.136H32.8635V225.545H26.5908ZM32.7272 210.273C32.7272 211.121 32.837 211.856 33.0567 212.477C33.284 213.091 33.6022 213.568 34.0113 213.909C34.4279 214.242 34.9242 214.409 35.4999 214.409C36.0757 214.409 36.5643 214.246 36.9658 213.92C37.3749 213.587 37.6855 213.114 37.8976 212.5C38.1173 211.879 38.2272 211.136 38.2272 210.273C38.2272 209.409 38.1173 208.67 37.8976 208.057C37.6855 207.436 37.3749 206.962 36.9658 206.636C36.5643 206.303 36.0757 206.136 35.4999 206.136C34.9242 206.136 34.4279 206.303 34.0113 206.636C33.6022 206.962 33.284 207.436 33.0567 208.057C32.837 208.67 32.7272 209.409 32.7272 210.273Z" fill="#4A4A4A"/>
</g>
<g filter="url(#filter35_f_63_3)">
<path d="M269.588 60.8182L269.497 62.0909C269.421 63.1818 269.24 64.2273 268.952 65.2273C268.671 66.2273 268.372 67.1136 268.054 67.8864C267.743 68.6591 267.497 69.2576 267.315 69.6818H263.452C263.573 69.2576 263.743 68.6439 263.963 67.8409C264.19 67.0454 264.395 66.1439 264.577 65.1364C264.766 64.1364 264.861 63.1212 264.861 62.0909V60.8182H269.588ZM267.315 52.6364C266.437 52.6364 265.683 52.3295 265.054 51.7159C264.433 51.0947 264.126 50.3409 264.133 49.4545C264.126 48.5909 264.433 47.8523 265.054 47.2386C265.683 46.625 266.437 46.3182 267.315 46.3182C268.149 46.3182 268.884 46.625 269.52 47.2386C270.164 47.8523 270.49 48.5909 270.497 49.4545C270.49 50.0454 270.334 50.5833 270.031 51.0682C269.736 51.5454 269.349 51.928 268.872 52.2159C268.395 52.4962 267.876 52.6364 267.315 52.6364Z" fill="#4A4A4A"/>
</g>
<g filter="url(#filter36_f_63_3)">
<path d="M259.176 55C259.176 57.7954 258.794 60.3674 258.028 62.7159C257.271 65.0644 256.063 67.25 254.403 69.2727H248.267C248.896 68.5227 249.475 67.6098 250.006 66.5341C250.536 65.4659 250.994 64.2954 251.381 63.0227C251.775 61.75 252.081 60.4318 252.301 59.0682C252.521 57.697 252.631 56.3409 252.631 55C252.631 53.2121 252.441 51.4129 252.063 49.6023C251.684 47.7841 251.165 46.1023 250.506 44.5568C249.847 43.0038 249.1 41.7273 248.267 40.7273H254.403C256.063 42.75 257.271 44.9356 258.028 47.2841C258.794 49.6326 259.176 52.2045 259.176 55Z" fill="#4A4A4A"/>
</g>
<g filter="url(#filter37_f_63_3)">
<path d="M240.273 40.7273V43.4545C240.273 44.197 240.121 44.9394 239.818 45.6818C239.523 46.4167 239.144 47.1023 238.682 47.7386C238.227 48.3674 237.757 48.8939 237.273 49.3182L234.682 48C235 47.4545 235.284 46.822 235.534 46.1023C235.784 45.3826 235.909 44.5 235.909 43.4545V40.7273H240.273ZM245.909 40.7273V43.4545C245.909 44.197 245.757 44.9394 245.454 45.6818C245.159 46.4167 244.78 47.1023 244.318 47.7386C243.863 48.3674 243.394 48.8939 242.909 49.3182L240.318 48C240.636 47.4545 240.92 46.822 241.17 46.1023C241.42 45.3826 241.545 44.5 241.545 43.4545V40.7273H245.909Z" fill="#4A4A4A"/>
</g>
<g filter="url(#filter38_f_63_3)">
<path d="M220.676 54.1818V64H214.403V46.5454H220.358V49.8636H220.54C220.918 48.7576 221.585 47.8901 222.54 47.2614C223.502 46.6326 224.623 46.3182 225.903 46.3182C227.138 46.3182 228.21 46.6023 229.119 47.1704C230.036 47.7311 230.744 48.5038 231.244 49.4886C231.752 50.4735 232.002 51.5985 231.994 52.8636V64H225.721V54.1818C225.729 53.3182 225.509 52.6401 225.062 52.1477C224.623 51.6553 224.009 51.4091 223.221 51.4091C222.706 51.4091 222.256 51.5227 221.869 51.75C221.49 51.9697 221.199 52.2879 220.994 52.7045C220.79 53.1136 220.684 53.6061 220.676 54.1818Z" fill="#4A4A4A"/>
</g>
<g filter="url(#filter39_f_63_3)">
<path d="M207.307 67.5L199.807 39.6364H205.125L212.625 67.5H207.307Z" fill="#4A4A4A"/>
</g>
<g filter="url(#filter40_f_63_3)">
<path d="M131.597 48V45.2727C131.597 44.5303 131.748 43.7841 132.051 43.0341C132.354 42.2841 132.737 41.5909 133.199 40.9545C133.661 40.3182 134.127 39.803 134.597 39.4091L137.188 40.7273C136.794 41.3864 136.487 42.0758 136.267 42.7955C136.055 43.5152 135.953 44.3409 135.96 45.2727V48H131.597ZM137.279 48V45.2727C137.279 44.5303 137.43 43.7841 137.733 43.0341C138.036 42.2841 138.419 41.5909 138.881 40.9545C139.343 40.3182 139.809 39.803 140.279 39.4091L142.869 40.7273C142.475 41.3864 142.169 42.0758 141.949 42.7955C141.737 43.5152 141.635 44.3409 141.642 45.2727V48H137.279Z" fill="#4A4A4A"/>
</g>
<g filter="url(#filter41_f_63_3)">
<path d="M118.321 55C118.321 52.2045 118.7 49.6326 119.457 47.2841C120.222 44.9356 121.434 42.75 123.094 40.7273H129.23C128.609 41.4773 128.029 42.3901 127.491 43.4659C126.961 44.5341 126.499 45.7045 126.105 46.9773C125.719 48.25 125.415 49.572 125.196 50.9432C124.976 52.3068 124.866 53.6591 124.866 55C124.866 56.7879 125.056 58.5909 125.434 60.4091C125.813 62.2197 126.332 63.8977 126.991 65.4432C127.65 66.9962 128.397 68.2727 129.23 69.2727H123.094C121.434 67.25 120.222 65.0644 119.457 62.7159C118.7 60.3674 118.321 57.7954 118.321 55Z" fill="#4A4A4A"/>
</g>
<g filter="url(#filter42_f_63_3)">
<path d="M114.764 46.5454V51.0909H103.083V46.5454H114.764ZM105.31 64V46.0454C105.31 44.6061 105.567 43.4129 106.083 42.4659C106.598 41.5189 107.325 40.8106 108.264 40.3409C109.204 39.8712 110.31 39.6364 111.583 39.6364C112.378 39.6364 113.151 39.697 113.901 39.8182C114.658 39.9394 115.219 40.0454 115.583 40.1364L114.673 44.6364C114.446 44.5682 114.181 44.5151 113.878 44.4773C113.575 44.4318 113.31 44.4091 113.083 44.4091C112.492 44.4091 112.094 44.5341 111.889 44.7841C111.685 45.0341 111.583 45.3636 111.583 45.7727V64H105.31Z" fill="#4A4A4A"/>
</g>
<g filter="url(#filter43_f_63_3)">
<path d="M101.75 46.5455V51.0909H90.25V46.5455H101.75ZM92.4773 42.3636H98.75V58.3864C98.75 58.6288 98.7917 58.8333 98.875 59C98.9583 59.1591 99.0871 59.2803 99.2614 59.3636C99.4356 59.4394 99.6591 59.4773 99.9318 59.4773C100.121 59.4773 100.341 59.4545 100.591 59.4091C100.848 59.3636 101.038 59.3258 101.159 59.2955L102.068 63.7045C101.788 63.7879 101.386 63.8901 100.864 64.0114C100.348 64.1326 99.7348 64.2121 99.0227 64.25C97.5833 64.3258 96.375 64.178 95.3977 63.8068C94.4205 63.428 93.6856 62.8333 93.1932 62.0227C92.7008 61.2121 92.4621 60.197 92.4773 58.9773V42.3636Z" fill="#4A4A4A"/>
</g>
<g filter="url(#filter44_f_63_3)">
<path d="M76.926 54.1818V64H70.6533V46.5454H76.6079V49.8636H76.7897C77.1685 48.7576 77.8351 47.8901 78.7897 47.2614C79.7518 46.6326 80.873 46.3182 82.1533 46.3182C83.3882 46.3182 84.4601 46.6023 85.3692 47.1704C86.2859 47.7311 86.9942 48.5038 87.4942 49.4886C88.0018 50.4735 88.2518 51.5985 88.2442 52.8636V64H81.9715V54.1818C81.9791 53.3182 81.7594 52.6401 81.3124 52.1477C80.873 51.6553 80.2594 51.4091 79.4715 51.4091C78.9563 51.4091 78.5056 51.5227 78.1192 51.75C77.7404 51.9697 77.4488 52.2879 77.2442 52.7045C77.0397 53.1136 76.9336 53.6061 76.926 54.1818Z" fill="#4A4A4A"/>
</g>
<g filter="url(#filter45_f_63_3)">
<path d="M61.1846 64V46.5455H67.4573V64H61.1846ZM64.3209 44.7273C63.4724 44.7273 62.7452 44.447 62.1391 43.8864C61.5331 43.3258 61.23 42.6515 61.23 41.8636C61.23 41.0758 61.5331 40.4015 62.1391 39.8409C62.7452 39.2803 63.4724 39 64.3209 39C65.177 39 65.9043 39.2803 66.5028 39.8409C67.1088 40.4015 67.4118 41.0758 67.4118 41.8636C67.4118 42.6515 67.1088 43.3258 66.5028 43.8864C65.9043 44.447 65.177 44.7273 64.3209 44.7273Z" fill="#4A4A4A"/>
</g>
<g filter="url(#filter46_f_63_3)">
<path d="M47.3096 64V46.5454H53.4005V49.8636H53.5823C53.9005 48.6364 54.4043 47.7386 55.0937 47.1704C55.7906 46.6023 56.605 46.3182 57.5368 46.3182C57.8096 46.3182 58.0785 46.3409 58.3437 46.3864C58.6164 46.4242 58.8778 46.4811 59.1278 46.5568V51.9091C58.8171 51.803 58.4346 51.7235 57.98 51.6704C57.5255 51.6174 57.1353 51.5909 56.8096 51.5909C56.1959 51.5909 55.6429 51.7311 55.1505 52.0114C54.6656 52.2841 54.2831 52.6704 54.0028 53.1704C53.7225 53.6629 53.5823 54.2424 53.5823 54.9091V64H47.3096Z" fill="#4A4A4A"/>
</g>
<g filter="url(#filter47_f_63_3)">
<path d="M26.5908 70.5454V46.5454H32.8181V49.5909H32.9545C33.1817 49 33.5151 48.4583 33.9545 47.9659C34.3938 47.4659 34.9393 47.0682 35.5908 46.7727C36.2423 46.4697 36.9999 46.3182 37.8635 46.3182C39.0151 46.3182 40.1098 46.625 41.1476 47.2386C42.1931 47.8523 43.0416 48.8182 43.6931 50.1364C44.3522 51.4545 44.6817 53.1667 44.6817 55.2727C44.6817 57.2879 44.3673 58.9583 43.7385 60.2841C43.1173 61.6098 42.284 62.5985 41.2385 63.25C40.2007 63.9015 39.0605 64.2273 37.8181 64.2273C36.9999 64.2273 36.2688 64.0947 35.6249 63.8295C34.9885 63.5568 34.4431 63.1894 33.9885 62.7273C33.5416 62.2576 33.1969 61.7273 32.9545 61.1364H32.8635V70.5454H26.5908ZM32.7272 55.2727C32.7272 56.1212 32.837 56.8561 33.0567 57.4773C33.284 58.0909 33.6022 58.5682 34.0113 58.9091C34.4279 59.2424 34.9242 59.4091 35.4999 59.4091C36.0757 59.4091 36.5643 59.2462 36.9658 58.9204C37.3749 58.5871 37.6855 58.1136 37.8976 57.5C38.1173 56.8788 38.2272 56.1364 38.2272 55.2727C38.2272 54.4091 38.1173 53.6704 37.8976 53.0568C37.6855 52.4356 37.3749 51.9621 36.9658 51.6364C36.5643 51.303 36.0757 51.1364 35.4999 51.1364C34.9242 51.1364 34.4279 51.303 34.0113 51.6364C33.6022 51.9621 33.284 52.4356 33.0567 53.0568C32.837 53.6704 32.7272 54.4091 32.7272 55.2727Z" fill="#4A4A4A"/>
</g>
<g filter="url(#filter48_f_63_3)">
<path d="M135.395 16.1364V13.2727C136.728 13.2727 137.653 13.0151 138.168 12.5C138.683 11.9773 138.94 11.1591 138.94 10.0454V8.27272C138.94 6.63636 139.194 5.3712 139.702 4.47726C140.217 3.57575 140.906 2.93181 141.77 2.54545C142.641 2.15908 143.626 1.92802 144.725 1.85226C145.823 1.76893 146.956 1.72726 148.122 1.72726V6.27272C147.213 6.27272 146.539 6.37499 146.1 6.57954C145.66 6.78408 145.372 7.09469 145.236 7.51136C145.1 7.92802 145.031 8.45454 145.031 9.0909V11.5909C145.031 12.1591 144.903 12.7159 144.645 13.2614C144.395 13.7992 143.929 14.2841 143.247 14.7159C142.565 15.1477 141.592 15.4924 140.327 15.75C139.062 16.0076 137.418 16.1364 135.395 16.1364ZM148.122 30.2727C146.956 30.2727 145.823 30.2311 144.725 30.1477C143.626 30.072 142.641 29.8409 141.77 29.4545C140.906 29.0682 140.217 28.4242 139.702 27.5227C139.194 26.6288 138.94 25.3636 138.94 23.7273V21.9545C138.94 20.8409 138.683 20.0265 138.168 19.5114C137.653 18.9886 136.728 18.7273 135.395 18.7273V15.8636C137.418 15.8636 139.062 15.9924 140.327 16.25C141.592 16.5076 142.565 16.8523 143.247 17.2841C143.929 17.7159 144.395 18.2045 144.645 18.75C144.903 19.2879 145.031 19.8409 145.031 20.4091V22.9091C145.031 23.5379 145.1 24.0644 145.236 24.4886C145.372 24.9053 145.66 25.2159 146.1 25.4204C146.539 25.625 147.213 25.7273 148.122 25.7273V30.2727ZM135.395 18.7273V13.2727H140.395V18.7273H135.395Z" fill="#212121"/>
</g>
<g filter="url(#filter49_f_63_3)">
<path d="M115.332 15.1818V25H109.06V7.54545H115.014V10.8636H115.196C115.575 9.75757 116.241 8.89015 117.196 8.26136C118.158 7.63257 119.279 7.31818 120.56 7.31818C121.794 7.31818 122.866 7.60227 123.775 8.17045C124.692 8.73105 125.4 9.50378 125.9 10.4886C126.408 11.4735 126.658 12.5985 126.65 13.8636V25H120.378V15.1818C120.385 14.3182 120.166 13.6401 119.719 13.1477C119.279 12.6553 118.666 12.4091 117.878 12.4091C117.363 12.4091 116.912 12.5227 116.525 12.75C116.147 12.9697 115.855 13.2879 115.65 13.7045C115.446 14.1136 115.34 14.6061 115.332 15.1818Z" fill="#212121"/>
</g>
<g filter="url(#filter50_f_63_3)">
<path d="M99.5908 25V7.54545H105.864V25H99.5908ZM102.727 5.72727C101.879 5.72727 101.151 5.44697 100.545 4.88636C99.9393 4.32576 99.6363 3.65151 99.6363 2.86364C99.6363 2.07576 99.9393 1.40151 100.545 0.840908C101.151 0.280303 101.879 0 102.727 0C103.583 0 104.311 0.280303 104.909 0.840908C105.515 1.40151 105.818 2.07576 105.818 2.86364C105.818 3.65151 105.515 4.32576 104.909 4.88636C104.311 5.44697 103.583 5.72727 102.727 5.72727Z" fill="#212121"/>
</g>
<g filter="url(#filter51_f_63_3)">
<path d="M85.5485 25.2727C84.4349 25.2727 83.45 25.0909 82.594 24.7273C81.7455 24.3561 81.0788 23.7954 80.594 23.0454C80.1091 22.2954 79.8667 21.3409 79.8667 20.1818C79.8667 19.2273 80.0296 18.4129 80.3553 17.7386C80.6811 17.0568 81.1356 16.5 81.719 16.0682C82.3023 15.6364 82.9803 15.3068 83.7531 15.0795C84.5334 14.8523 85.3743 14.7045 86.2758 14.6364C87.2531 14.5606 88.0372 14.4697 88.6281 14.3636C89.2265 14.25 89.6584 14.0947 89.9235 13.8977C90.1887 13.6932 90.3212 13.4242 90.3212 13.0909V13.0454C90.3212 12.5909 90.147 12.2424 89.7985 12C89.45 11.7576 89.0031 11.6364 88.4576 11.6364C87.8591 11.6364 87.3705 11.7689 86.9917 12.0341C86.6205 12.2917 86.397 12.6894 86.3212 13.2273H80.5485C80.6243 12.1667 80.9614 11.1894 81.5599 10.2954C82.1659 9.39393 83.0485 8.67424 84.2076 8.13636C85.3667 7.5909 86.8137 7.31818 88.5485 7.31818C89.7985 7.31818 90.9197 7.4659 91.9122 7.76136C92.9046 8.04924 93.7493 8.45454 94.4462 8.97727C95.1432 9.49242 95.6735 10.0985 96.0372 10.7954C96.4084 11.4848 96.594 12.2348 96.594 13.0454V25H90.7303V22.5454H90.594C90.2455 23.197 89.8212 23.7235 89.3212 24.125C88.8288 24.5265 88.2644 24.8182 87.6281 25C86.9993 25.1818 86.3061 25.2727 85.5485 25.2727ZM87.594 21.3182C88.0712 21.3182 88.5182 21.2197 88.9349 21.0227C89.3591 20.8258 89.7038 20.5417 89.969 20.1704C90.2341 19.7992 90.3667 19.3485 90.3667 18.8182V17.3636C90.2 17.4318 90.022 17.4962 89.8326 17.5568C89.6508 17.6174 89.4538 17.6742 89.2417 17.7273C89.0372 17.7803 88.8175 17.8295 88.5826 17.875C88.3553 17.9204 88.1167 17.9621 87.8667 18C87.3819 18.0758 86.9841 18.2008 86.6735 18.375C86.3705 18.5417 86.1432 18.75 85.9917 19C85.8478 19.2424 85.7758 19.5151 85.7758 19.8182C85.7758 20.303 85.9462 20.6742 86.2872 20.9318C86.6281 21.1894 87.0637 21.3182 87.594 21.3182Z" fill="#212121"/>
</g>
<g filter="url(#filter52_f_63_3)">
<path d="M50.5908 25V7.54545H56.5454V10.8636H56.7272C57.0908 9.77272 57.712 8.90908 58.5908 8.27272C59.4696 7.63636 60.5151 7.31818 61.7272 7.31818C62.9545 7.31818 64.0113 7.64393 64.8976 8.29545C65.784 8.93939 66.3181 9.79545 66.4999 10.8636H66.6817C66.9772 9.79545 67.606 8.93939 68.5681 8.29545C69.5302 7.64393 70.659 7.31818 71.9545 7.31818C73.6287 7.31818 74.9848 7.85605 76.0226 8.93181C77.0681 10.0076 77.5908 11.4394 77.5908 13.2273V25H71.3181V14.8182C71.3181 14.053 71.1249 13.4545 70.7386 13.0227C70.3522 12.5833 69.8332 12.3636 69.1817 12.3636C68.5378 12.3636 68.0264 12.5833 67.6476 13.0227C67.2764 13.4545 67.0908 14.053 67.0908 14.8182V25H61.0908V14.8182C61.0908 14.053 60.8976 13.4545 60.5113 13.0227C60.1249 12.5833 59.606 12.3636 58.9545 12.3636C58.5226 12.3636 58.1514 12.4621 57.8408 12.6591C57.5302 12.8561 57.2878 13.1401 57.1135 13.5114C56.9469 13.875 56.8635 14.3106 56.8635 14.8182V25H50.5908Z" fill="#212121"/>
</g>
<g filter="url(#filter53_f_63_3)">
<path d="M41.6562 7.54545V12.0909H30.1562V7.54545H41.6562ZM32.3835 3.36363H38.6562V19.3864C38.6562 19.6288 38.6979 19.8333 38.7812 20C38.8646 20.1591 38.9934 20.2803 39.1676 20.3636C39.3419 20.4394 39.5653 20.4773 39.8381 20.4773C40.0275 20.4773 40.2472 20.4545 40.4972 20.4091C40.7547 20.3636 40.9441 20.3258 41.0653 20.2955L41.9744 24.7045C41.6941 24.7879 41.2926 24.8901 40.7699 25.0114C40.2547 25.1326 39.6411 25.2121 38.929 25.25C37.4896 25.3258 36.2813 25.178 35.304 24.8068C34.3267 24.428 33.5919 23.8333 33.0994 23.0227C32.607 22.2121 32.3684 21.197 32.3835 19.9773V3.36363Z" fill="#212121"/>
</g>
<g filter="url(#filter54_f_63_3)">
<path d="M16.8323 15.1818V25H10.5596V7.54545H16.5141V10.8636H16.6959C17.0747 9.75757 17.7414 8.89015 18.6959 8.26136C19.6581 7.63257 20.7793 7.31818 22.0596 7.31818C23.2944 7.31818 24.3664 7.60227 25.2755 8.17045C26.1921 8.73105 26.9005 9.50378 27.4005 10.4886C27.9081 11.4735 28.1581 12.5985 28.1505 13.8636V25H21.8778V15.1818C21.8853 14.3182 21.6656 13.6401 21.2187 13.1477C20.7793 12.6553 20.1656 12.4091 19.3778 12.4091C18.8626 12.4091 18.4118 12.5227 18.0255 12.75C17.6467 12.9697 17.355 13.2879 17.1505 13.7045C16.9459 14.1136 16.8399 14.6061 16.8323 15.1818Z" fill="#212121"/>
</g>
<g filter="url(#filter55_f_63_3)">
<path d="M1.09082 25V7.54545H7.36355V25H1.09082ZM4.22718 5.72727C3.3787 5.72727 2.65143 5.44697 2.04537 4.88636C1.43931 4.32576 1.13627 3.65151 1.13627 2.86364C1.13627 2.07576 1.43931 1.40151 2.04537 0.840908C2.65143 0.280303 3.3787 0 4.22718 0C5.08324 0 5.81052 0.280303 6.409 0.840908C7.01506 1.40151 7.31809 2.07576 7.31809 2.86364C7.31809 3.65151 7.01506 4.32576 6.409 4.88636C5.81052 5.44697 5.08324 5.72727 4.22718 5.72727Z" fill="#212121"/>
</g>
<path d="M150.5 219V125.909H190.682C197.591 125.909 203.636 127.273 208.818 130C214 132.727 218.03 136.561 220.909 141.5C223.788 146.439 225.227 152.212 225.227 158.818C225.227 165.485 223.742 171.258 220.773 176.136C217.833 181.015 213.697 184.773 208.364 187.409C203.061 190.045 196.864 191.364 189.773 191.364H165.773V171.727H184.682C187.652 171.727 190.182 171.212 192.273 170.182C194.394 169.121 196.015 167.621 197.136 165.682C198.288 163.742 198.864 161.455 198.864 158.818C198.864 156.152 198.288 153.879 197.136 152C196.015 150.091 194.394 148.636 192.273 147.636C190.182 146.606 187.652 146.091 184.682 146.091H175.773V219H150.5ZM324.682 172.455C324.682 182.818 322.667 191.561 318.636 198.682C314.606 205.773 309.167 211.152 302.318 214.818C295.47 218.455 287.833 220.273 279.409 220.273C270.924 220.273 263.258 218.439 256.409 214.773C249.591 211.076 244.167 205.682 240.136 198.591C236.136 191.47 234.136 182.758 234.136 172.455C234.136 162.091 236.136 153.364 240.136 146.273C244.167 139.152 249.591 133.773 256.409 130.136C263.258 126.47 270.924 124.636 279.409 124.636C287.833 124.636 295.47 126.47 302.318 130.136C309.167 133.773 314.606 139.152 318.636 146.273C322.667 153.364 324.682 162.091 324.682 172.455ZM298.682 172.455C298.682 166.879 297.939 162.182 296.455 158.364C295 154.515 292.833 151.606 289.955 149.636C287.106 147.636 283.591 146.636 279.409 146.636C275.227 146.636 271.697 147.636 268.818 149.636C265.97 151.606 263.803 154.515 262.318 158.364C260.864 162.182 260.136 166.879 260.136 172.455C260.136 178.03 260.864 182.742 262.318 186.591C263.803 190.409 265.97 193.318 268.818 195.318C271.697 197.288 275.227 198.273 279.409 198.273C283.591 198.273 287.106 197.288 289.955 195.318C292.833 193.318 295 190.409 296.455 186.591C297.939 182.742 298.682 178.03 298.682 172.455ZM336.375 219V125.909H376.557C383.466 125.909 389.511 127.167 394.693 129.682C399.875 132.197 403.905 135.818 406.784 140.545C409.663 145.273 411.102 150.939 411.102 157.545C411.102 164.212 409.617 169.833 406.648 174.409C403.708 178.985 399.572 182.439 394.239 184.773C388.936 187.106 382.739 188.273 375.648 188.273H351.648V168.636H370.557C373.527 168.636 376.057 168.273 378.148 167.545C380.269 166.788 381.89 165.591 383.011 163.955C384.163 162.318 384.739 160.182 384.739 157.545C384.739 154.879 384.163 152.712 383.011 151.045C381.89 149.348 380.269 148.106 378.148 147.318C376.057 146.5 373.527 146.091 370.557 146.091H361.648V219H336.375ZM390.92 176.273L414.193 219H386.739L364.011 176.273H390.92ZM419.33 146.273V125.909H500.239V146.273H472.239V219H447.33V146.273H419.33ZM509.75 219V125.909H575.205V146.273H535.023V162.273H571.205V182.636H535.023V219H509.75ZM674.682 172.455C674.682 182.818 672.667 191.561 668.636 198.682C664.606 205.773 659.167 211.152 652.318 214.818C645.47 218.455 637.833 220.273 629.409 220.273C620.924 220.273 613.258 218.439 606.409 214.773C599.591 211.076 594.167 205.682 590.136 198.591C586.136 191.47 584.136 182.758 584.136 172.455C584.136 162.091 586.136 153.364 590.136 146.273C594.167 139.152 599.591 133.773 606.409 130.136C613.258 126.47 620.924 124.636 629.409 124.636C637.833 124.636 645.47 126.47 652.318 130.136C659.167 133.773 664.606 139.152 668.636 146.273C672.667 153.364 674.682 162.091 674.682 172.455ZM648.682 172.455C648.682 166.879 647.939 162.182 646.455 158.364C645 154.515 642.833 151.606 639.955 149.636C637.106 147.636 633.591 146.636 629.409 146.636C625.227 146.636 621.697 147.636 618.818 149.636C615.97 151.606 613.803 154.515 612.318 158.364C610.864 162.182 610.136 166.879 610.136 172.455C610.136 178.03 610.864 182.742 612.318 186.591C613.803 190.409 615.97 193.318 618.818 195.318C621.697 197.288 625.227 198.273 629.409 198.273C633.591 198.273 637.106 197.288 639.955 195.318C642.833 193.318 645 190.409 646.455 186.591C647.939 182.742 648.682 178.03 648.682 172.455ZM686.375 219V125.909H711.648V198.636H749.284V219H686.375ZM784.773 125.909V219H759.5V125.909H784.773ZM886.932 172.455C886.932 182.818 884.917 191.561 880.886 198.682C876.856 205.773 871.417 211.152 864.568 214.818C857.72 218.455 850.083 220.273 841.659 220.273C833.174 220.273 825.508 218.439 818.659 214.773C811.841 211.076 806.417 205.682 802.386 198.591C798.386 191.47 796.386 182.758 796.386 172.455C796.386 162.091 798.386 153.364 802.386 146.273C806.417 139.152 811.841 133.773 818.659 130.136C825.508 126.47 833.174 124.636 841.659 124.636C850.083 124.636 857.72 126.47 864.568 130.136C871.417 133.773 876.856 139.152 880.886 146.273C884.917 153.364 886.932 162.091 886.932 172.455ZM860.932 172.455C860.932 166.879 860.189 162.182 858.705 158.364C857.25 154.515 855.083 151.606 852.205 149.636C849.356 147.636 845.841 146.636 841.659 146.636C837.477 146.636 833.947 147.636 831.068 149.636C828.22 151.606 826.053 154.515 824.568 158.364C823.114 162.182 822.386 166.879 822.386 172.455C822.386 178.03 823.114 182.742 824.568 186.591C826.053 190.409 828.22 193.318 831.068 195.318C833.947 197.288 837.477 198.273 841.659 198.273C845.841 198.273 849.356 197.288 852.205 195.318C855.083 193.318 857.25 190.409 858.705 186.591C860.189 182.742 860.932 178.03 860.932 172.455Z" fill="#FF4800"/>
<path d="M151.909 258L145.045 234.727H152.091L155.273 249.045H155.455L159.227 234.727H164.773L168.545 249.091H168.727L171.909 234.727H178.955L172.091 258H166.045L162.091 245H161.909L157.955 258H151.909ZM181 258V234.727H197.773V239.818H187.318V243.818H196.909V248.909H187.318V252.909H197.727V258H181ZM200.906 258V234.727H210.997C212.77 234.727 214.259 234.966 215.463 235.443C216.675 235.92 217.588 236.595 218.202 237.466C218.823 238.337 219.134 239.364 219.134 240.545C219.134 241.402 218.944 242.182 218.565 242.886C218.194 243.591 217.671 244.182 216.997 244.659C216.323 245.129 215.535 245.455 214.634 245.636V245.864C215.634 245.902 216.543 246.155 217.361 246.625C218.179 247.087 218.83 247.727 219.315 248.545C219.8 249.356 220.043 250.311 220.043 251.409C220.043 252.682 219.709 253.814 219.043 254.807C218.384 255.799 217.444 256.58 216.224 257.148C215.005 257.716 213.55 258 211.861 258H200.906ZM207.224 252.955H210.179C211.24 252.955 212.035 252.758 212.565 252.364C213.096 251.962 213.361 251.371 213.361 250.591C213.361 250.045 213.236 249.583 212.986 249.205C212.736 248.826 212.38 248.538 211.918 248.341C211.463 248.144 210.914 248.045 210.27 248.045H207.224V252.955ZM207.224 244.136H209.815C210.368 244.136 210.857 244.049 211.281 243.875C211.705 243.701 212.035 243.451 212.27 243.125C212.512 242.792 212.634 242.386 212.634 241.909C212.634 241.189 212.376 240.64 211.861 240.261C211.346 239.875 210.694 239.682 209.906 239.682H207.224V244.136ZM234.827 242C234.766 241.242 234.482 240.652 233.974 240.227C233.474 239.803 232.713 239.591 231.69 239.591C231.039 239.591 230.505 239.67 230.088 239.83C229.679 239.981 229.376 240.189 229.179 240.455C228.982 240.72 228.88 241.023 228.872 241.364C228.857 241.644 228.906 241.898 229.02 242.125C229.141 242.345 229.33 242.545 229.588 242.727C229.846 242.902 230.175 243.061 230.577 243.205C230.978 243.348 231.455 243.477 232.009 243.591L233.918 244C235.205 244.273 236.308 244.633 237.224 245.08C238.141 245.527 238.891 246.053 239.474 246.659C240.058 247.258 240.486 247.932 240.759 248.682C241.039 249.432 241.183 250.25 241.19 251.136C241.183 252.667 240.8 253.962 240.043 255.023C239.285 256.083 238.202 256.89 236.793 257.443C235.391 257.996 233.705 258.273 231.736 258.273C229.713 258.273 227.948 257.973 226.44 257.375C224.94 256.777 223.774 255.856 222.94 254.614C222.115 253.364 221.698 251.765 221.69 249.818H227.69C227.728 250.53 227.906 251.129 228.224 251.614C228.543 252.098 228.99 252.466 229.565 252.716C230.149 252.966 230.842 253.091 231.645 253.091C232.319 253.091 232.884 253.008 233.338 252.841C233.793 252.674 234.137 252.443 234.372 252.148C234.607 251.852 234.728 251.515 234.736 251.136C234.728 250.78 234.611 250.47 234.384 250.205C234.164 249.932 233.8 249.689 233.293 249.477C232.785 249.258 232.099 249.053 231.236 248.864L228.918 248.364C226.857 247.917 225.232 247.17 224.043 246.125C222.861 245.072 222.274 243.636 222.281 241.818C222.274 240.341 222.668 239.049 223.463 237.943C224.266 236.83 225.376 235.962 226.793 235.341C228.217 234.72 229.849 234.409 231.69 234.409C233.569 234.409 235.194 234.723 236.565 235.352C237.937 235.981 238.993 236.867 239.736 238.011C240.486 239.148 240.865 240.477 240.872 242H234.827ZM249.912 234.727V258H243.594V234.727H249.912ZM252.27 239.818V234.727H272.497V239.818H265.497V258H259.27V239.818H252.27ZM274.875 258V234.727H291.648V239.818H281.193V243.818H290.784V248.909H281.193V252.909H291.602V258H274.875Z" fill="#F8F8F8"/>
<path d="M146 40.7273H153.864L159.273 53.9091H159.545L164.955 40.7273H172.818V64H166.636V50.5455H166.455L161.273 63.8182H157.545L152.364 50.4545H152.182V64H146V40.7273ZM179.722 70.5455C179.002 70.5455 178.316 70.4886 177.665 70.375C177.013 70.2689 176.441 70.1212 175.949 69.9318L177.312 65.4773C177.828 65.6591 178.297 65.7765 178.722 65.8295C179.153 65.8826 179.521 65.8523 179.824 65.7386C180.134 65.625 180.358 65.4091 180.494 65.0909L180.631 64.7727L174.494 46.5455H181.04L183.858 58.6364H184.04L186.903 46.5455H193.494L187.131 65.4545C186.812 66.4167 186.35 67.2803 185.744 68.0455C185.146 68.8182 184.358 69.428 183.381 69.875C182.403 70.322 181.184 70.5455 179.722 70.5455Z" fill="#F8F8F8"/>
</g>
<defs>
<filter id="filter0_f_63_3" x="-8" y="343.727" width="28.7271" height="44.5455" filterUnits="userSpaceOnUse" color-interpolation-filters="sRGB">
<feFlood flood-opacity="0" result="BackgroundImageFix"/>
<feBlend mode="normal" in="SourceGraphic" in2="BackgroundImageFix" result="shape"/>
<feGaussianBlur stdDeviation="4" result="effect1_foregroundBlur_63_3"/>
</filter>
<filter id="filter1_f_63_3" x="150.952" y="312.318" width="19.0454" height="35.3636" filterUnits="userSpaceOnUse" color-interpolation-filters="sRGB">
<feFlood flood-opacity="0" result="BackgroundImageFix"/>
<feBlend mode="normal" in="SourceGraphic" in2="BackgroundImageFix" result="shape"/>
<feGaussianBlur stdDeviation="3" result="effect1_foregroundBlur_63_3"/>
</filter>
<filter id="filter2_f_63_3" x="127.44" y="306.409" width="32.5459" height="36.2273" filterUnits="userSpaceOnUse" color-interpolation-filters="sRGB">
<feFlood flood-opacity="0" result="BackgroundImageFix"/>
<feBlend mode="normal" in="SourceGraphic" in2="BackgroundImageFix" result="shape"/>
<feGaussianBlur stdDeviation="3" result="effect1_foregroundBlur_63_3"/>
</filter>
<filter id="filter3_f_63_3" x="100.56" y="312.318" width="29.5913" height="29.6818" filterUnits="userSpaceOnUse" color-interpolation-filters="sRGB">
<feFlood flood-opacity="0" result="BackgroundImageFix"/>
<feBlend mode="normal" in="SourceGraphic" in2="BackgroundImageFix" result="shape"/>
<feGaussianBlur stdDeviation="3" result="effect1_foregroundBlur_63_3"/>
</filter>
<filter id="filter4_f_63_3" x="86.6846" y="312.318" width="23.8184" height="29.6818" filterUnits="userSpaceOnUse" color-interpolation-filters="sRGB">
<feFlood flood-opacity="0" result="BackgroundImageFix"/>
<feBlend mode="normal" in="SourceGraphic" in2="BackgroundImageFix" result="shape"/>
<feGaussianBlur stdDeviation="3" result="effect1_foregroundBlur_63_3"/>
</filter>
<filter id="filter5_f_63_3" x="65.9033" y="312.545" width="29.5908" height="29.6818" filterUnits="userSpaceOnUse" color-interpolation-filters="sRGB">
<feFlood flood-opacity="0" result="BackgroundImageFix"/>
<feBlend mode="normal" in="SourceGraphic" in2="BackgroundImageFix" result="shape"/>
<feGaussianBlur stdDeviation="3" result="effect1_foregroundBlur_63_3"/>
</filter>
<filter id="filter6_f_63_3" x="51.8438" y="308.364" width="23.8184" height="33.9056" filterUnits="userSpaceOnUse" color-interpolation-filters="sRGB">
<feFlood flood-opacity="0" result="BackgroundImageFix"/>
<feBlend mode="normal" in="SourceGraphic" in2="BackgroundImageFix" result="shape"/>
<feGaussianBlur stdDeviation="3" result="effect1_foregroundBlur_63_3"/>
</filter>
<filter id="filter7_f_63_3" x="32.8296" y="312.318" width="29.5454" height="30" filterUnits="userSpaceOnUse" color-interpolation-filters="sRGB">
<feFlood flood-opacity="0" result="BackgroundImageFix"/>
<feBlend mode="normal" in="SourceGraphic" in2="BackgroundImageFix" result="shape"/>
<feGaussianBlur stdDeviation="3" result="effect1_foregroundBlur_63_3"/>
</filter>
<filter id="filter8_f_63_3" x="20.5908" y="312.318" width="23.8184" height="29.6818" filterUnits="userSpaceOnUse" color-interpolation-filters="sRGB">
<feFlood flood-opacity="0" result="BackgroundImageFix"/>
<feBlend mode="normal" in="SourceGraphic" in2="BackgroundImageFix" result="shape"/>
<feGaussianBlur stdDeviation="3" result="effect1_foregroundBlur_63_3"/>
</filter>
<filter id="filter9_f_63_3" x="359.045" y="236.318" width="15.0454" height="31.3636" filterUnits="userSpaceOnUse" color-interpolation-filters="sRGB">
<feFlood flood-opacity="0" result="BackgroundImageFix"/>
<feBlend mode="normal" in="SourceGraphic" in2="BackgroundImageFix" result="shape"/>
<feGaussianBlur stdDeviation="2" result="effect1_foregroundBlur_63_3"/>
</filter>
<filter id="filter10_f_63_3" x="343.861" y="230.727" width="18.9092" height="36.5455" filterUnits="userSpaceOnUse" color-interpolation-filters="sRGB">
<feFlood flood-opacity="0" result="BackgroundImageFix"/>
<feBlend mode="normal" in="SourceGraphic" in2="BackgroundImageFix" result="shape"/>
<feGaussianBlur stdDeviation="2" result="effect1_foregroundBlur_63_3"/>
</filter>
<filter id="filter11_f_63_3" x="330.275" y="230.727" width="19.2271" height="16.5909" filterUnits="userSpaceOnUse" color-interpolation-filters="sRGB">
<feFlood flood-opacity="0" result="BackgroundImageFix"/>
<feBlend mode="normal" in="SourceGraphic" in2="BackgroundImageFix" result="shape"/>
<feGaussianBlur stdDeviation="2" result="effect1_foregroundBlur_63_3"/>
</filter>
<filter id="filter12_f_63_3" x="309.997" y="236.318" width="25.5913" height="25.6818" filterUnits="userSpaceOnUse" color-interpolation-filters="sRGB">
<feFlood flood-opacity="0" result="BackgroundImageFix"/>
<feBlend mode="normal" in="SourceGraphic" in2="BackgroundImageFix" result="shape"/>
<feGaussianBlur stdDeviation="2" result="effect1_foregroundBlur_63_3"/>
</filter>
<filter id="filter13_f_63_3" x="295.4" y="229.636" width="20.8184" height="35.8636" filterUnits="userSpaceOnUse" color-interpolation-filters="sRGB">
<feFlood flood-opacity="0" result="BackgroundImageFix"/>
<feBlend mode="normal" in="SourceGraphic" in2="BackgroundImageFix" result="shape"/>
<feGaussianBlur stdDeviation="2" result="effect1_foregroundBlur_63_3"/>
</filter>
<filter id="filter14_f_63_3" x="127.597" y="229.409" width="19.2729" height="16.5909" filterUnits="userSpaceOnUse" color-interpolation-filters="sRGB">
<feFlood flood-opacity="0" result="BackgroundImageFix"/>
<feBlend mode="normal" in="SourceGraphic" in2="BackgroundImageFix" result="shape"/>
<feGaussianBlur stdDeviation="2" result="effect1_foregroundBlur_63_3"/>
</filter>
<filter id="filter15_f_63_3" x="114.321" y="230.727" width="18.9092" height="36.5455" filterUnits="userSpaceOnUse" color-interpolation-filters="sRGB">
<feFlood flood-opacity="0" result="BackgroundImageFix"/>
<feBlend mode="normal" in="SourceGraphic" in2="BackgroundImageFix" result="shape"/>
<feGaussianBlur stdDeviation="2" result="effect1_foregroundBlur_63_3"/>
</filter>
<filter id="filter16_f_63_3" x="99.0825" y="229.636" width="20.5" height="32.3636" filterUnits="userSpaceOnUse" color-interpolation-filters="sRGB">
<feFlood flood-opacity="0" result="BackgroundImageFix"/>
<feBlend mode="normal" in="SourceGraphic" in2="BackgroundImageFix" result="shape"/>
<feGaussianBlur stdDeviation="2" result="effect1_foregroundBlur_63_3"/>
</filter>
<filter id="filter17_f_63_3" x="86.25" y="232.364" width="19.8184" height="29.9056" filterUnits="userSpaceOnUse" color-interpolation-filters="sRGB">
<feFlood flood-opacity="0" result="BackgroundImageFix"/>
<feBlend mode="normal" in="SourceGraphic" in2="BackgroundImageFix" result="shape"/>
<feGaussianBlur stdDeviation="2" result="effect1_foregroundBlur_63_3"/>
</filter>
<filter id="filter18_f_63_3" x="66.6533" y="236.318" width="25.5913" height="25.6818" filterUnits="userSpaceOnUse" color-interpolation-filters="sRGB">
<feFlood flood-opacity="0" result="BackgroundImageFix"/>
<feBlend mode="normal" in="SourceGraphic" in2="BackgroundImageFix" result="shape"/>
<feGaussianBlur stdDeviation="2" result="effect1_foregroundBlur_63_3"/>
</filter>
<filter id="filter19_f_63_3" x="57.1846" y="229" width="14.2729" height="33" filterUnits="userSpaceOnUse" color-interpolation-filters="sRGB">
<feFlood flood-opacity="0" result="BackgroundImageFix"/>
<feBlend mode="normal" in="SourceGraphic" in2="BackgroundImageFix" result="shape"/>
<feGaussianBlur stdDeviation="2" result="effect1_foregroundBlur_63_3"/>
</filter>
<filter id="filter20_f_63_3" x="43.3096" y="236.318" width="19.8184" height="25.6818" filterUnits="userSpaceOnUse" color-interpolation-filters="sRGB">
<feFlood flood-opacity="0" result="BackgroundImageFix"/>
<feBlend mode="normal" in="SourceGraphic" in2="BackgroundImageFix" result="shape"/>
<feGaussianBlur stdDeviation="2" result="effect1_foregroundBlur_63_3"/>
</filter>
<filter id="filter21_f_63_3" x="22.5908" y="236.318" width="26.0908" height="32.2273" filterUnits="userSpaceOnUse" color-interpolation-filters="sRGB">
<feFlood flood-opacity="0" result="BackgroundImageFix"/>
<feBlend mode="normal" in="SourceGraphic" in2="BackgroundImageFix" result="shape"/>
<feGaussianBlur stdDeviation="2" result="effect1_foregroundBlur_63_3"/>
</filter>
<filter id="filter22_f_63_3" x="960.389" y="199.318" width="11.0454" height="27.3636" filterUnits="userSpaceOnUse" color-interpolation-filters="sRGB">
<feFlood flood-opacity="0" result="BackgroundImageFix"/>
<feBlend mode="normal" in="SourceGraphic" in2="BackgroundImageFix" result="shape"/>
<feGaussianBlur stdDeviation="1" result="effect1_foregroundBlur_63_3"/>
</filter>
<filter id="filter23_f_63_3" x="945.205" y="193.727" width="14.9092" height="32.5455" filterUnits="userSpaceOnUse" color-interpolation-filters="sRGB">
<feFlood flood-opacity="0" result="BackgroundImageFix"/>
<feBlend mode="normal" in="SourceGraphic" in2="BackgroundImageFix" result="shape"/>
<feGaussianBlur stdDeviation="1" result="effect1_foregroundBlur_63_3"/>
</filter>
<filter id="filter24_f_63_3" x="931.619" y="193.727" width="15.2275" height="12.5909" filterUnits="userSpaceOnUse" color-interpolation-filters="sRGB">
<feFlood flood-opacity="0" result="BackgroundImageFix"/>
<feBlend mode="normal" in="SourceGraphic" in2="BackgroundImageFix" result="shape"/>
<feGaussianBlur stdDeviation="1" result="effect1_foregroundBlur_63_3"/>
</filter>
<filter id="filter25_f_63_3" x="911.341" y="199.318" width="21.5913" height="21.6818" filterUnits="userSpaceOnUse" color-interpolation-filters="sRGB">
<feFlood flood-opacity="0" result="BackgroundImageFix"/>
<feBlend mode="normal" in="SourceGraphic" in2="BackgroundImageFix" result="shape"/>
<feGaussianBlur stdDeviation="1" result="effect1_foregroundBlur_63_3"/>
</filter>
<filter id="filter26_f_63_3" x="896.744" y="192.636" width="16.8184" height="31.8636" filterUnits="userSpaceOnUse" color-interpolation-filters="sRGB">
<feFlood flood-opacity="0" result="BackgroundImageFix"/>
<feBlend mode="normal" in="SourceGraphic" in2="BackgroundImageFix" result="shape"/>
<feGaussianBlur stdDeviation="1" result="effect1_foregroundBlur_63_3"/>
</filter>
<filter id="filter27_f_63_3" x="129.597" y="192.409" width="15.2729" height="12.5909" filterUnits="userSpaceOnUse" color-interpolation-filters="sRGB">
<feFlood flood-opacity="0" result="BackgroundImageFix"/>
<feBlend mode="normal" in="SourceGraphic" in2="BackgroundImageFix" result="shape"/>
<feGaussianBlur stdDeviation="1" result="effect1_foregroundBlur_63_3"/>
</filter>
<filter id="filter28_f_63_3" x="116.321" y="193.727" width="14.9092" height="32.5455" filterUnits="userSpaceOnUse" color-interpolation-filters="sRGB">
<feFlood flood-opacity="0" result="BackgroundImageFix"/>
<feBlend mode="normal" in="SourceGraphic" in2="BackgroundImageFix" result="shape"/>
<feGaussianBlur stdDeviation="1" result="effect1_foregroundBlur_63_3"/>
</filter>
<filter id="filter29_f_63_3" x="101.083" y="192.636" width="16.5" height="28.3636" filterUnits="userSpaceOnUse" color-interpolation-filters="sRGB">
<feFlood flood-opacity="0" result="BackgroundImageFix"/>
<feBlend mode="normal" in="SourceGraphic" in2="BackgroundImageFix" result="shape"/>
<feGaussianBlur stdDeviation="1" result="effect1_foregroundBlur_63_3"/>
</filter>
<filter id="filter30_f_63_3" x="88.25" y="195.364" width="15.8184" height="25.9056" filterUnits="userSpaceOnUse" color-interpolation-filters="sRGB">
<feFlood flood-opacity="0" result="BackgroundImageFix"/>
<feBlend mode="normal" in="SourceGraphic" in2="BackgroundImageFix" result="shape"/>
<feGaussianBlur stdDeviation="1" result="effect1_foregroundBlur_63_3"/>
</filter>
<filter id="filter31_f_63_3" x="68.6533" y="199.318" width="21.5913" height="21.6818" filterUnits="userSpaceOnUse" color-interpolation-filters="sRGB">
<feFlood flood-opacity="0" result="BackgroundImageFix"/>
<feBlend mode="normal" in="SourceGraphic" in2="BackgroundImageFix" result="shape"/>
<feGaussianBlur stdDeviation="1" result="effect1_foregroundBlur_63_3"/>
</filter>
<filter id="filter32_f_63_3" x="59.1846" y="192" width="10.2729" height="29" filterUnits="userSpaceOnUse" color-interpolation-filters="sRGB">
<feFlood flood-opacity="0" result="BackgroundImageFix"/>
<feBlend mode="normal" in="SourceGraphic" in2="BackgroundImageFix" result="shape"/>
<feGaussianBlur stdDeviation="1" result="effect1_foregroundBlur_63_3"/>
</filter>
<filter id="filter33_f_63_3" x="45.3096" y="199.318" width="15.8184" height="21.6818" filterUnits="userSpaceOnUse" color-interpolation-filters="sRGB">
<feFlood flood-opacity="0" result="BackgroundImageFix"/>
<feBlend mode="normal" in="SourceGraphic" in2="BackgroundImageFix" result="shape"/>
<feGaussianBlur stdDeviation="1" result="effect1_foregroundBlur_63_3"/>
</filter>
<filter id="filter34_f_63_3" x="24.5908" y="199.318" width="22.0908" height="28.2273" filterUnits="userSpaceOnUse" color-interpolation-filters="sRGB">
<feFlood flood-opacity="0" result="BackgroundImageFix"/>
<feBlend mode="normal" in="SourceGraphic" in2="BackgroundImageFix" result="shape"/>
<feGaussianBlur stdDeviation="1" result="effect1_foregroundBlur_63_3"/>
</filter>
<filter id="filter35_f_63_3" x="257.452" y="40.3182" width="19.0454" height="35.3636" filterUnits="userSpaceOnUse" color-interpolation-filters="sRGB">
<feFlood flood-opacity="0" result="BackgroundImageFix"/>
<feBlend mode="normal" in="SourceGraphic" in2="BackgroundImageFix" result="shape"/>
<feGaussianBlur stdDeviation="3" result="effect1_foregroundBlur_63_3"/>
</filter>
<filter id="filter36_f_63_3" x="242.267" y="34.7273" width="22.9092" height="40.5455" filterUnits="userSpaceOnUse" color-interpolation-filters="sRGB">
<feFlood flood-opacity="0" result="BackgroundImageFix"/>
<feBlend mode="normal" in="SourceGraphic" in2="BackgroundImageFix" result="shape"/>
<feGaussianBlur stdDeviation="3" result="effect1_foregroundBlur_63_3"/>
</filter>
<filter id="filter37_f_63_3" x="228.682" y="34.7273" width="23.2271" height="20.5909" filterUnits="userSpaceOnUse" color-interpolation-filters="sRGB">
<feFlood flood-opacity="0" result="BackgroundImageFix"/>
<feBlend mode="normal" in="SourceGraphic" in2="BackgroundImageFix" result="shape"/>
<feGaussianBlur stdDeviation="3" result="effect1_foregroundBlur_63_3"/>
</filter>
<filter id="filter38_f_63_3" x="208.403" y="40.3182" width="29.5913" height="29.6818" filterUnits="userSpaceOnUse" color-interpolation-filters="sRGB">
<feFlood flood-opacity="0" result="BackgroundImageFix"/>
<feBlend mode="normal" in="SourceGraphic" in2="BackgroundImageFix" result="shape"/>
<feGaussianBlur stdDeviation="3" result="effect1_foregroundBlur_63_3"/>
</filter>
<filter id="filter39_f_63_3" x="193.807" y="33.6364" width="24.8184" height="39.8636" filterUnits="userSpaceOnUse" color-interpolation-filters="sRGB">
<feFlood flood-opacity="0" result="BackgroundImageFix"/>
<feBlend mode="normal" in="SourceGraphic" in2="BackgroundImageFix" result="shape"/>
<feGaussianBlur stdDeviation="3" result="effect1_foregroundBlur_63_3"/>
</filter>
<filter id="filter40_f_63_3" x="125.597" y="33.4091" width="23.2729" height="20.5909" filterUnits="userSpaceOnUse" color-interpolation-filters="sRGB">
<feFlood flood-opacity="0" result="BackgroundImageFix"/>
<feBlend mode="normal" in="SourceGraphic" in2="BackgroundImageFix" result="shape"/>
<feGaussianBlur stdDeviation="3" result="effect1_foregroundBlur_63_3"/>
</filter>
<filter id="filter41_f_63_3" x="112.321" y="34.7273" width="22.9092" height="40.5455" filterUnits="userSpaceOnUse" color-interpolation-filters="sRGB">
<feFlood flood-opacity="0" result="BackgroundImageFix"/>
<feBlend mode="normal" in="SourceGraphic" in2="BackgroundImageFix" result="shape"/>
<feGaussianBlur stdDeviation="3" result="effect1_foregroundBlur_63_3"/>
</filter>
<filter id="filter42_f_63_3" x="97.0825" y="33.6364" width="24.5" height="36.3636" filterUnits="userSpaceOnUse" color-interpolation-filters="sRGB">
<feFlood flood-opacity="0" result="BackgroundImageFix"/>
<feBlend mode="normal" in="SourceGraphic" in2="BackgroundImageFix" result="shape"/>
<feGaussianBlur stdDeviation="3" result="effect1_foregroundBlur_63_3"/>
</filter>
<filter id="filter43_f_63_3" x="84.25" y="36.3636" width="23.8184" height="33.9056" filterUnits="userSpaceOnUse" color-interpolation-filters="sRGB">
<feFlood flood-opacity="0" result="BackgroundImageFix"/>
<feBlend mode="normal" in="SourceGraphic" in2="BackgroundImageFix" result="shape"/>
<feGaussianBlur stdDeviation="3" result="effect1_foregroundBlur_63_3"/>
</filter>
<filter id="filter44_f_63_3" x="64.6533" y="40.3182" width="29.5913" height="29.6818" filterUnits="userSpaceOnUse" color-interpolation-filters="sRGB">
<feFlood flood-opacity="0" result="BackgroundImageFix"/>
<feBlend mode="normal" in="SourceGraphic" in2="BackgroundImageFix" result="shape"/>
<feGaussianBlur stdDeviation="3" result="effect1_foregroundBlur_63_3"/>
</filter>
<filter id="filter45_f_63_3" x="55.1846" y="33" width="18.2729" height="37" filterUnits="userSpaceOnUse" color-interpolation-filters="sRGB">
<feFlood flood-opacity="0" result="BackgroundImageFix"/>
<feBlend mode="normal" in="SourceGraphic" in2="BackgroundImageFix" result="shape"/>
<feGaussianBlur stdDeviation="3" result="effect1_foregroundBlur_63_3"/>
</filter>
<filter id="filter46_f_63_3" x="41.3096" y="40.3182" width="23.8184" height="29.6818" filterUnits="userSpaceOnUse" color-interpolation-filters="sRGB">
<feFlood flood-opacity="0" result="BackgroundImageFix"/>
<feBlend mode="normal" in="SourceGraphic" in2="BackgroundImageFix" result="shape"/>
<feGaussianBlur stdDeviation="3" result="effect1_foregroundBlur_63_3"/>
</filter>
<filter id="filter47_f_63_3" x="20.5908" y="40.3182" width="30.0908" height="36.2273" filterUnits="userSpaceOnUse" color-interpolation-filters="sRGB">
<feFlood flood-opacity="0" result="BackgroundImageFix"/>
<feBlend mode="normal" in="SourceGraphic" in2="BackgroundImageFix" result="shape"/>
<feGaussianBlur stdDeviation="3" result="effect1_foregroundBlur_63_3"/>
</filter>
<filter id="filter48_f_63_3" x="127.395" y="-6.27274" width="28.7271" height="44.5455" filterUnits="userSpaceOnUse" color-interpolation-filters="sRGB">
<feFlood flood-opacity="0" result="BackgroundImageFix"/>
<feBlend mode="normal" in="SourceGraphic" in2="BackgroundImageFix" result="shape"/>
<feGaussianBlur stdDeviation="4" result="effect1_foregroundBlur_63_3"/>
</filter>
<filter id="filter49_f_63_3" x="101.06" y="-0.681824" width="33.5913" height="33.6818" filterUnits="userSpaceOnUse" color-interpolation-filters="sRGB">
<feFlood flood-opacity="0" result="BackgroundImageFix"/>
<feBlend mode="normal" in="SourceGraphic" in2="BackgroundImageFix" result="shape"/>
<feGaussianBlur stdDeviation="4" result="effect1_foregroundBlur_63_3"/>
</filter>
<filter id="filter50_f_63_3" x="91.5908" y="-8" width="22.2729" height="41" filterUnits="userSpaceOnUse" color-interpolation-filters="sRGB">
<feFlood flood-opacity="0" result="BackgroundImageFix"/>
<feBlend mode="normal" in="SourceGraphic" in2="BackgroundImageFix" result="shape"/>
<feGaussianBlur stdDeviation="4" result="effect1_foregroundBlur_63_3"/>
</filter>
<filter id="filter51_f_63_3" x="71.8667" y="-0.681824" width="32.7271" height="33.9545" filterUnits="userSpaceOnUse" color-interpolation-filters="sRGB">
<feFlood flood-opacity="0" result="BackgroundImageFix"/>
<feBlend mode="normal" in="SourceGraphic" in2="BackgroundImageFix" result="shape"/>
<feGaussianBlur stdDeviation="4" result="effect1_foregroundBlur_63_3"/>
</filter>
<filter id="filter52_f_63_3" x="42.5908" y="-0.681824" width="43" height="33.6818" filterUnits="userSpaceOnUse" color-interpolation-filters="sRGB">
<feFlood flood-opacity="0" result="BackgroundImageFix"/>
<feBlend mode="normal" in="SourceGraphic" in2="BackgroundImageFix" result="shape"/>
<feGaussianBlur stdDeviation="4" result="effect1_foregroundBlur_63_3"/>
</filter>
<filter id="filter53_f_63_3" x="22.1562" y="-4.63637" width="27.8184" height="37.9056" filterUnits="userSpaceOnUse" color-interpolation-filters="sRGB">
<feFlood flood-opacity="0" result="BackgroundImageFix"/>
<feBlend mode="normal" in="SourceGraphic" in2="BackgroundImageFix" result="shape"/>
<feGaussianBlur stdDeviation="4" result="effect1_foregroundBlur_63_3"/>
</filter>
<filter id="filter54_f_63_3" x="2.55957" y="-0.681824" width="33.5913" height="33.6818" filterUnits="userSpaceOnUse" color-interpolation-filters="sRGB">
<feFlood flood-opacity="0" result="BackgroundImageFix"/>
<feBlend mode="normal" in="SourceGraphic" in2="BackgroundImageFix" result="shape"/>
<feGaussianBlur stdDeviation="4" result="effect1_foregroundBlur_63_3"/>
</filter>
<filter id="filter55_f_63_3" x="-6.90918" y="-8" width="22.2729" height="41" filterUnits="userSpaceOnUse" color-interpolation-filters="sRGB">
<feFlood flood-opacity="0" result="BackgroundImageFix"/>
<feBlend mode="normal" in="SourceGraphic" in2="BackgroundImageFix" result="shape"/>
<feGaussianBlur stdDeviation="4" result="effect1_foregroundBlur_63_3"/>
</filter>
<clipPath id="clip0_63_3">
<rect width="969" height="380" fill="white"/>
</clipPath>
</defs>
</svg>
